# xmcd CD database file
#
# Track frame offsets:
#	150
#	18889
#	36672
#	57922
#	77280
#	88463
#	110275
#	126582
#	138369
#	153959
#	164652
#	186380
#	205865
#	231137
#	243401
#	255418
#
# Disc length: 3574 seconds
#
# Revision: 0
# Processed by: cddbd v1.5.1PL0 Copyright (c) Steve Scherf et al.
# Submitted via: CDex 1.51
#
DISCID=db0df410
DTITLE=IL GRANDE ROCK - CD_34 - American Music
DYEAR=2000
DGENRE=Country
TTITLE0=America - A horse with no name
TTITLE1=Poco - A good feelin' to know
TTITLE2=Doobie Brothers - Listen to the music
TTITLE3=Loggins and Messina - House at pooh corner
TTITLE4=Gram Parsons - How much i've lied
TTITLE5=David Bromberg - Get up and go/Fiddle tunes
TTITLE6=Charlie Daniels Band - Devil went down to Georgiaù
TTITLE7=Johnny Cash - Ring of fire
TTITLE8=Sonny and Cher - The beat goes on
TTITLE9=JJ Cale - After Midnight
TTITLE10=Taj Mahal - Leavin' trunk
TTITLE11=Big Star - The ballad of el goodo
TTITLE12=Roger Mcguinn - Up to me
TTITLE13=Tim Hardin - If i were a carpenter
TTITLE14=Laura Nyro - And when i die
TTITLE15=Tim Buckley - Morning glory
EXTD=YEAR: 2000
EXTT0=
EXTT1=
EXTT2=
EXTT3=
EXTT4=
EXTT5=
EXTT6=
EXTT7=
EXTT8=
EXTT9=
EXTT10=
EXTT11=
EXTT12=
EXTT13=
EXTT14=
EXTT15=
PLAYORDER=
